<?xml version="1.0" encoding="utf-8"?>
<!-- Generator: Adobe Illustrator 21.0.0, SVG Export Plug-In . SVG Version: 6.00 Build 0)  -->
<svg version="1.1" id="Слой_1" xmlns="http://www.w3.org/2000/svg" xmlns:xlink="http://www.w3.org/1999/xlink" x="0px" y="0px"
	 viewBox="0 0 390 120" width="390" height="120" enable-background="new 0 0 390 120" xml:space="preserve">
<g fill="#5d3a41">
	<path d="M111.3,57.5H76.8c-0.5,0-0.8-0.3-0.8-0.8v-3.3c0-0.5,0.3-0.8,0.8-0.8h4.8v-37h-4.8c-0.5,0-0.8-0.3-0.8-0.8v-3.3
		c0-0.5,0.3-0.8,0.8-0.8h15.1c0.5,0,0.8,0.3,0.8,0.8v3.2c0,0.6-0.3,0.8-0.8,0.8h-4.8v37h20v-6.4c0-0.5,0.3-0.8,0.8-0.8h3.4
		c0.5,0,0.8,0.3,0.8,0.8v10.4C112.1,57.2,111.8,57.5,111.3,57.5z"/>
	<path d="M148.5,57.5H143c-1.8,0-2.7-0.9-2.7-2.7v-3.3h-0.1c-3.1,4.4-7.2,6.6-12.3,6.6c-3,0-5.5-0.8-7.4-2.4
		c-1.9-1.6-2.9-3.8-2.9-6.6c0-3.6,1.5-6.2,4.5-7.8c3-1.7,7.1-2.5,12.4-2.5h5.3v-0.8c0-5.4-2.7-8.1-8.2-8.1c-2.6,0-4.4,0.3-5.5,0.7
		c-1.1,0.5-1.9,0.9-2.4,1.2c-0.5,0.3-0.9,0.5-1.1,0.7c-0.6,0.5-1.1,0.6-1.4,0.1l-1.8-2.3c-0.3-0.3-0.3-0.7,0.1-1
		c0.7-1,2.2-1.9,4.4-2.8c2.2-0.9,4.9-1.4,7.9-1.4c8.8,0,13.2,4.3,13.2,13v15.1h3.5c0.5,0,0.8,0.3,0.8,0.8v2.8
		C149.2,57.3,149,57.5,148.5,57.5z M139.7,42.6h-5c-2.4,0-4.5,0.1-6,0.4c-1.6,0.3-3,0.8-4.1,1.7c-1.1,0.9-1.7,2.1-1.7,3.6
		c0,1.5,0.6,2.8,1.8,3.7s2.8,1.5,4.7,1.5c4.1,0,7.5-1.9,10.3-5.6V42.6z"/>
	<path d="M187.5,57.5h-6c-1.8,0-2.7-0.9-2.7-2.7V37.7c0-2.5-0.6-4.5-1.8-5.9c-1.2-1.4-2.9-2.1-5.2-2.1c-3.2,0-5.8,1.4-7.6,4.1
		c-0.2,0.3-0.5,0.7-0.8,1.4v17.9h3.3c0.5,0,0.8,0.3,0.8,0.8v2.8c0,0.5-0.3,0.8-0.8,0.8h-12c-0.5,0-0.8-0.3-0.8-0.8v-2.8
		c0-0.5,0.3-0.8,0.8-0.8h3.5V29.9h-3.5c-0.5,0-0.8-0.3-0.8-0.8v-2.8c0-0.5,0.3-0.8,0.8-0.8h7.4c0.5,0,0.8,0.3,0.8,0.8l-0.1,4.4h0.2
		c2.2-3.8,5.6-5.7,10.1-5.7c3.4,0,6,1,7.9,3.1c1.9,2,2.9,4.8,2.9,8.3v16.8h3.5c0.5,0,0.8,0.3,0.8,0.8v2.8
		C188.3,57.3,188,57.5,187.5,57.5z"/>
	<path d="M206.4,72.8c-2.1,0-3.7-0.2-4.8-0.5c-1.1-0.3-1.9-0.6-2.6-0.8c-0.7-0.2-1.2-0.5-1.7-0.7c-0.5-0.2-0.9-0.5-1.3-0.7
		c-1.8-1.3-2.5-2.2-2.1-2.7l1.6-2.4c0.3-0.4,0.6-0.4,1.1-0.1c0,0,0.2,0.1,0.4,0.3c0.2,0.2,0.5,0.4,0.7,0.6c0.2,0.2,0.5,0.4,0.9,0.6
		c0.4,0.2,0.9,0.5,1.4,0.7s1,0.4,1.6,0.6c1.4,0.4,2.9,0.6,4.6,0.6c3,0,5.4-0.7,7.3-2.2c1.8-1.5,2.7-3.9,2.7-7.1v-7.4
		c-0.8,1.8-2,3.4-3.7,4.7s-3.9,2-6.5,2c-4.3,0-7.7-1.5-10.3-4.6c-2.6-3.1-3.9-7.1-3.9-12c0-4.9,1.3-8.9,3.9-11.8
		c2.6-3,6-4.5,10.2-4.5c2.6,0,4.8,0.6,6.6,1.9c1.8,1.2,3.1,2.7,3.9,4.5h0.1l-0.1-5.1c0-0.5,0.3-0.8,0.8-0.8h7.4
		c0.5,0,0.8,0.3,0.8,0.8v2.8c0,0.5-0.3,0.8-0.8,0.8h-3.4v28.9c0,4.6-1.4,8.1-4.1,10.5C214.5,71.6,210.9,72.8,206.4,72.8z M197,41.5
		c0,3.6,0.9,6.5,2.8,8.7c1.8,2.2,4.2,3.3,6.9,3.3s5.1-1.1,6.9-3.3c1.8-2.2,2.7-5.1,2.7-8.7c0-3.6-0.9-6.5-2.7-8.7
		c-1.8-2.1-4.1-3.2-6.9-3.2s-5.1,1.1-6.9,3.3C198,35,197,37.9,197,41.5z"/>
	<path d="M256,53.4c-2.9,3-6.7,4.6-11.3,4.6c-4.6,0-8.3-1.5-11.3-4.5c-2.9-3-4.4-7-4.4-12s1.5-9,4.5-11.9c3-3,6.7-4.4,11.2-4.4
		c4.5,0,8.3,1.5,11.2,4.5c3,3,4.4,6.9,4.4,11.9C260.4,46.4,258.9,50.4,256,53.4z M234.3,41.4c0,3.6,1,6.4,3,8.7
		c2,2.2,4.5,3.3,7.4,3.3c2.9,0,5.4-1.1,7.4-3.3c2-2.2,3-5.1,3-8.7c0-3.6-1-6.4-3.1-8.6s-4.5-3.3-7.3-3.3c-2.9,0-5.3,1.1-7.4,3.3
		C235.4,35,234.3,37.9,234.3,41.4z"/>
	<path d="M296.8,57.5h-5.5c-1.8,0-2.7-0.9-2.7-2.7v-2.4h-0.2c-1.7,3.7-5,5.6-9.8,5.6c-3.4,0-6-1-8-3.1c-2-2.1-3-4.8-3-8.2V29.9h-3.6
		c-0.5,0-0.8-0.3-0.8-0.8v-2.8c0-0.5,0.3-0.8,0.8-0.8h6c1.8,0,2.7,0.9,2.7,2.7v17.1c0,2.5,0.6,4.5,1.8,5.9c1.2,1.4,2.9,2.1,5.2,2.1
		c3.1,0,5.5-1.2,7.2-3.5c0.8-1,1.1-1.7,1.1-2V29.9h-3.4c-0.5,0-0.8-0.3-0.8-0.8v-2.8c0-0.5,0.3-0.8,0.8-0.8h7.8
		c0.5,0,0.8,0.3,0.8,0.8v26.9h3.5c0.5,0,0.8,0.3,0.8,0.8v2.8C297.6,57.3,297.4,57.5,296.8,57.5z"/>
	<path d="M316,58c-2.8,0-5.1-0.5-6.7-1.6c-1.7-1.1-2.7-2.1-3.1-3.1H306c0.1,2.1,0.1,3.3,0.1,3.4c0,0.6-0.3,0.8-0.9,0.8h-2.1
		c-0.5,0-0.8-0.3-0.8-0.8v-9.8c0-0.6,0.3-0.8,0.8-0.8h2.5c0.6,0,0.9,0.3,0.9,0.8v1.3c0.4,1.3,1.3,2.5,2.6,3.6c1.6,1.3,3.6,2,6,2
		c4.7,0,7.1-1.7,7.1-5.1c0-1.2-0.7-2.1-2-2.8c-1.3-0.7-2.9-1.3-4.8-1.8s-3.7-1-5.6-1.6c-1.8-0.6-3.4-1.6-4.7-3c-1.3-1.4-2-3.1-2-5.2
		c0-2.8,1-5.1,3-6.7c2-1.7,4.5-2.5,7.6-2.5c4.2,0,7.1,1.3,8.9,3.8h0.1c-0.1-1.6-0.1-2.4-0.1-2.4c0-0.6,0.3-0.8,0.8-0.8h2
		c0.5,0,0.8,0.3,0.8,0.8v9c0,0.6-0.3,0.8-0.8,0.8H323c-0.6,0-0.9-0.3-0.9-0.8v-0.9c0-1.2-0.7-2.3-2-3.5c-1.3-1.1-3-1.7-5.1-1.7
		c-2.1,0-3.7,0.5-4.9,1.4c-1.2,0.9-1.8,2.1-1.8,3.5c0,1.5,0.7,2.6,2,3.4c1.3,0.8,2.9,1.4,4.8,1.9s3.8,1,5.7,1.5
		c1.9,0.6,3.5,1.5,4.8,2.8c1.3,1.3,2,3.1,2,5.4c0,2.3-1,4.3-2.9,6.1S319.9,58,316,58z"/>
	<path d="M352.9,54.2c0.2,0.2,0.3,0.4,0.3,0.6s-0.1,0.4-0.4,0.7c-1.8,1.7-4.2,2.5-7,2.5c-2.8,0-5.1-0.9-6.9-2.8s-2.7-4.6-2.7-8.2
		V29.9h-3.5c-0.6,0-0.9-0.3-0.9-0.8v-2.7c0-0.6,0.3-0.8,0.9-0.8h3.5v-6.6c0-0.6,0.3-0.9,0.9-0.9h3.5c0.5,0,0.8,0.3,0.8,0.9v6.6h8
		c0.6,0,0.9,0.3,0.9,0.8V29c0,0.6-0.3,0.8-0.9,0.8h-8v16.9c0,2.2,0.5,3.8,1.4,4.9c0.9,1.1,2.2,1.7,3.8,1.7c1.6,0,2.8-0.4,3.6-1.2
		c0.4-0.4,0.8-0.4,1.1,0.1L352.9,54.2z"/>
	<path d="M383.1,42.2h-22.7c0.2,3.6,1.3,6.4,3.3,8.3c2,2,4.3,2.9,6.9,2.9c2.6,0,4.8-0.6,6.6-1.7c1.8-1.1,3.1-2.2,3.7-3.3
		c0.3-0.4,0.7-0.5,1.1-0.2l1.7,1.8c0.3,0.3,0.4,0.5,0.4,0.7s-0.1,0.4-0.3,0.7c-0.2,0.3-0.6,0.8-1.2,1.4c-0.6,0.7-1.4,1.4-2.5,2.2
		c-1.1,0.8-2.5,1.5-4.2,2.1c-1.7,0.6-3.5,0.8-5.4,0.8c-4.4,0-8.1-1.5-11.1-4.5c-3-3-4.4-7-4.4-12.1c0-5.1,1.5-9,4.4-12
		c2.9-2.9,6.5-4.4,10.8-4.4c4.3,0,7.6,1.4,10,4.3c2.4,2.8,3.7,6.7,3.7,11.5c0,0.2,0,0.3,0,0.5C384,41.9,383.7,42.2,383.1,42.2z
		 M376.3,31.7c-1.5-1.6-3.5-2.4-6-2.4s-4.7,0.7-6.5,2.2c-1.8,1.5-2.9,3.7-3.2,6.6h18.2C378.6,35.5,377.8,33.4,376.3,31.7z"/>
</g>
<g fill="#5d3a41">
	<path d="M31.6,57.5H4.1c-0.4,0-0.7-0.3-0.7-0.8v-3.3c0-0.5,0.2-0.8,0.7-0.8h3.8v-37H4.1c-0.4,0-0.7-0.3-0.7-0.8v-3.3
		c0-0.5,0.2-0.8,0.7-0.8h12c0.4,0,0.7,0.3,0.7,0.8v3.2c0,0.6-0.2,0.8-0.7,0.8h-3.8v37h16v-6.4c0-0.5,0.2-0.8,0.7-0.8h2.7
		c0.4,0,0.6,0.3,0.6,0.8v10.4C32.3,57.2,32,57.5,31.6,57.5z"/>
</g>
<g fill="#5d3a41">
	<path d="M58.3,38.4h-4.4c-1.4,0-2.2-0.7-2.2-2.2v-2.7h-0.1c-2.5,3.6-5.7,5.4-9.8,5.4c-2.4,0-4.4-0.7-5.9-2
		c-1.5-1.3-2.3-3.1-2.3-5.4c0-2.9,1.2-5,3.6-6.4c2.4-1.4,5.7-2,9.9-2h4.2v-0.6c0-4.4-2.2-6.7-6.6-6.7c-2,0-3.5,0.2-4.4,0.6
		c-0.9,0.4-1.6,0.7-1.9,1c-0.4,0.2-0.7,0.4-0.9,0.6c-0.5,0.4-0.9,0.5-1.1,0.1L35,16.1c-0.2-0.3-0.2-0.6,0.1-0.9
		c0.6-0.8,1.7-1.5,3.5-2.3c1.8-0.7,3.9-1.1,6.3-1.1c7.1,0,10.6,3.5,10.6,10.6v12.3h2.8c0.4,0,0.6,0.2,0.6,0.6v2.3
		C58.9,38.2,58.7,38.4,58.3,38.4z M51.3,26.1h-4c-1.9,0-3.6,0.1-4.8,0.3c-1.3,0.2-2.4,0.7-3.3,1.4c-0.9,0.7-1.3,1.7-1.3,2.9
		c0,1.2,0.5,2.3,1.4,3.1c1,0.8,2.2,1.2,3.8,1.2c3.3,0,6-1.5,8.2-4.6V26.1z"/>
</g>
<g fill="#5d3a41">
	<path d="M6.5,109.5H1.9c-0.2,0-0.3-0.1-0.3-0.3v-1c0-0.2,0.1-0.3,0.3-0.3h1.3v-8.6H1.9c-0.2,0-0.3-0.1-0.3-0.3v-1
		c0-0.2,0.1-0.3,0.3-0.3h2.8C4.9,97.7,5,97.8,5,98v3h0.1c0-0.3,0.2-0.6,0.5-1.1c0.3-0.4,0.6-0.8,0.9-1.1c0.3-0.3,0.8-0.6,1.5-0.8
		s1.4-0.4,2.2-0.4c0.2,0,0.3,0.1,0.3,0.3v1.3c0,0.2-0.1,0.3-0.3,0.3H9.7c-1.4,0-2.5,0.4-3.3,1.3c-0.8,0.9-1.2,1.9-1.2,3v4h1.3
		c0.2,0,0.3,0.1,0.3,0.3v1C6.8,109.4,6.7,109.5,6.5,109.5z"/>
	<path d="M26.1,103.9h-8.6c0.1,1.3,0.5,2.4,1.3,3.1c0.8,0.7,1.7,1.1,2.6,1.1s1.8-0.2,2.5-0.6c0.7-0.4,1.2-0.8,1.4-1.2
		c0.1-0.2,0.3-0.2,0.4-0.1l0.6,0.6c0.1,0.1,0.1,0.2,0.1,0.3c0,0.1,0,0.2-0.1,0.3c-0.1,0.1-0.2,0.3-0.4,0.5c-0.2,0.2-0.5,0.5-0.9,0.8
		c-0.4,0.3-0.9,0.6-1.6,0.8c-0.6,0.2-1.3,0.3-2.1,0.3c-1.7,0-3.1-0.6-4.2-1.7c-1.1-1.1-1.7-2.6-1.7-4.5c0-1.9,0.6-3.3,1.7-4.4
		c1.1-1.1,2.5-1.6,4.1-1.6c1.6,0,2.9,0.5,3.8,1.6c0.9,1,1.4,2.5,1.4,4.2c0,0.1,0,0.1,0,0.2C26.4,103.8,26.3,103.9,26.1,103.9z
		 M23.5,100c-0.6-0.6-1.3-0.9-2.3-0.9s-1.8,0.3-2.5,0.8c-0.7,0.5-1.1,1.4-1.2,2.4h6.9C24.4,101.4,24.1,100.6,23.5,100z"/>
	<path d="M37.7,109.7c-1.1,0-1.9-0.2-2.6-0.6c-0.6-0.4-1-0.8-1.2-1.1h0c0,0.8,0,1.2,0,1.2c0,0.2-0.1,0.3-0.3,0.3h-0.8
		c-0.2,0-0.3-0.1-0.3-0.3v-3.6c0-0.2,0.1-0.3,0.3-0.3h0.9c0.2,0,0.3,0.1,0.3,0.3v0.5c0.2,0.5,0.5,0.9,1,1.3c0.6,0.5,1.4,0.7,2.3,0.7
		c1.8,0,2.7-0.6,2.7-1.9c0-0.4-0.2-0.8-0.7-1c-0.5-0.3-1.1-0.5-1.8-0.7c-0.7-0.2-1.4-0.4-2.1-0.6c-0.7-0.2-1.3-0.6-1.8-1.1
		s-0.7-1.1-0.7-1.9c0-1,0.4-1.9,1.1-2.5c0.8-0.6,1.7-0.9,2.9-0.9c1.6,0,2.7,0.5,3.4,1.4h0c0-0.6,0-0.9,0-0.9c0-0.2,0.1-0.3,0.3-0.3
		h0.8c0.2,0,0.3,0.1,0.3,0.3v3.3c0,0.2-0.1,0.3-0.3,0.3h-0.9c-0.2,0-0.3-0.1-0.3-0.3V101c0-0.4-0.3-0.9-0.8-1.3s-1.2-0.6-2-0.6
		c-0.8,0-1.4,0.2-1.9,0.5c-0.4,0.3-0.7,0.8-0.7,1.3s0.3,1,0.8,1.2s1.1,0.5,1.8,0.7c0.7,0.2,1.4,0.4,2.2,0.6c0.7,0.2,1.3,0.6,1.8,1
		c0.5,0.5,0.8,1.1,0.8,2s-0.4,1.6-1.1,2.2C40.3,109.4,39.2,109.7,37.7,109.7z"/>
	<path d="M55.9,108.3c0.1,0.1,0.1,0.1,0.1,0.2c0,0.1,0,0.2-0.1,0.3c-0.7,0.6-1.6,0.9-2.7,0.9c-1.1,0-1.9-0.3-2.6-1s-1-1.7-1-3v-6.3
		h-1.3c-0.2,0-0.3-0.1-0.3-0.3v-1c0-0.2,0.1-0.3,0.3-0.3h1.3v-2.4c0-0.2,0.1-0.3,0.3-0.3h1.3c0.2,0,0.3,0.1,0.3,0.3v2.4h3
		c0.2,0,0.3,0.1,0.3,0.3v1c0,0.2-0.1,0.3-0.3,0.3h-3v6.2c0,0.8,0.2,1.4,0.5,1.8c0.4,0.4,0.8,0.6,1.4,0.6s1.1-0.2,1.4-0.5
		c0.2-0.1,0.3-0.1,0.4,0L55.9,108.3z"/>
	<path d="M73.3,109.5h-2.1c-0.7,0-1-0.3-1-1v-1.2h0c-1.2,1.6-2.7,2.4-4.7,2.4c-1.2,0-2.1-0.3-2.8-0.9c-0.7-0.6-1.1-1.4-1.1-2.4
		c0-1.3,0.6-2.3,1.7-2.9c1.1-0.6,2.7-0.9,4.7-0.9h2v-0.3c0-2-1-3-3.1-3c-1,0-1.7,0.1-2.1,0.3s-0.7,0.3-0.9,0.4
		c-0.2,0.1-0.3,0.2-0.4,0.3c-0.2,0.2-0.4,0.2-0.5,0l-0.7-0.8c-0.1-0.1-0.1-0.3,0-0.4c0.3-0.4,0.8-0.7,1.7-1c0.8-0.3,1.8-0.5,3-0.5
		c3.4,0,5,1.6,5,4.8v5.6h1.3c0.2,0,0.3,0.1,0.3,0.3v1C73.6,109.4,73.5,109.5,73.3,109.5z M70,104h-1.9c-0.9,0-1.7,0-2.3,0.1
		c-0.6,0.1-1.1,0.3-1.5,0.6s-0.6,0.8-0.6,1.3c0,0.6,0.2,1,0.7,1.4c0.5,0.4,1.1,0.5,1.8,0.5c1.6,0,2.9-0.7,3.9-2.1V104z"/>
	<path d="M91.7,109.5h-2.1c-0.7,0-1-0.3-1-1v-0.9h-0.1c-0.7,1.4-1.9,2.1-3.7,2.1c-1.3,0-2.3-0.4-3-1.1c-0.7-0.8-1.1-1.8-1.1-3v-6.2
		h-1.4c-0.2,0-0.3-0.1-0.3-0.3v-1c0-0.2,0.1-0.3,0.3-0.3h2.3c0.7,0,1,0.3,1,1v6.3c0,0.9,0.2,1.6,0.7,2.2c0.4,0.5,1.1,0.8,2,0.8
		c1.2,0,2.1-0.4,2.8-1.3c0.3-0.4,0.4-0.6,0.4-0.7v-6.6h-1.3c-0.2,0-0.3-0.1-0.3-0.3v-1c0-0.2,0.1-0.3,0.3-0.3h3
		c0.2,0,0.3,0.1,0.3,0.3v9.9h1.3c0.2,0,0.3,0.1,0.3,0.3v1C92,109.4,91.9,109.5,91.7,109.5z"/>
	<path d="M102.8,109.5h-4.6c-0.2,0-0.3-0.1-0.3-0.3v-1c0-0.2,0.1-0.3,0.3-0.3h1.3v-8.6h-1.3c-0.2,0-0.3-0.1-0.3-0.3v-1
		c0-0.2,0.1-0.3,0.3-0.3h2.8c0.2,0,0.3,0.1,0.3,0.3v3h0.1c0-0.3,0.2-0.6,0.5-1.1c0.3-0.4,0.6-0.8,0.9-1.1c0.3-0.3,0.8-0.6,1.5-0.8
		c0.6-0.2,1.4-0.4,2.2-0.4c0.2,0,0.3,0.1,0.3,0.3v1.3c0,0.2-0.1,0.3-0.3,0.3H106c-1.4,0-2.5,0.4-3.3,1.3c-0.8,0.9-1.2,1.9-1.2,3v4
		h1.3c0.2,0,0.3,0.1,0.3,0.3v1C103.1,109.4,103,109.5,102.8,109.5z"/>
	<path d="M123.7,109.5h-2.1c-0.7,0-1-0.3-1-1v-1.2h0c-1.2,1.6-2.7,2.4-4.7,2.4c-1.2,0-2.1-0.3-2.8-0.9c-0.7-0.6-1.1-1.4-1.1-2.4
		c0-1.3,0.6-2.3,1.7-2.9c1.1-0.6,2.7-0.9,4.7-0.9h2v-0.3c0-2-1-3-3.1-3c-1,0-1.7,0.1-2.1,0.3s-0.7,0.3-0.9,0.4
		c-0.2,0.1-0.3,0.2-0.4,0.3c-0.2,0.2-0.4,0.2-0.5,0l-0.7-0.8c-0.1-0.1-0.1-0.3,0-0.4c0.3-0.4,0.8-0.7,1.7-1c0.8-0.3,1.8-0.5,3-0.5
		c3.4,0,5,1.6,5,4.8v5.6h1.3c0.2,0,0.3,0.1,0.3,0.3v1C124,109.4,123.9,109.5,123.7,109.5z M120.4,104h-1.9c-0.9,0-1.7,0-2.3,0.1
		c-0.6,0.1-1.1,0.3-1.5,0.6c-0.4,0.3-0.6,0.8-0.6,1.3c0,0.6,0.2,1,0.7,1.4c0.5,0.4,1.1,0.5,1.8,0.5c1.6,0,2.9-0.7,3.9-2.1V104z"/>
	<path d="M142.7,109.5h-2.3c-0.7,0-1-0.3-1-1v-6.3c0-0.9-0.2-1.6-0.7-2.2c-0.4-0.5-1.1-0.8-2-0.8c-1.2,0-2.2,0.5-2.9,1.5
		c-0.1,0.1-0.2,0.3-0.3,0.5v6.6h1.3c0.2,0,0.3,0.1,0.3,0.3v1c0,0.2-0.1,0.3-0.3,0.3h-4.6c-0.2,0-0.3-0.1-0.3-0.3v-1
		c0-0.2,0.1-0.3,0.3-0.3h1.3v-8.6h-1.3c-0.2,0-0.3-0.1-0.3-0.3v-1c0-0.2,0.1-0.3,0.3-0.3h2.8c0.2,0,0.3,0.1,0.3,0.3l0,1.6h0.1
		c0.8-1.4,2.1-2.1,3.9-2.1c1.3,0,2.3,0.4,3,1.1c0.7,0.8,1.1,1.8,1.1,3v6.2h1.3c0.2,0,0.3,0.1,0.3,0.3v1
		C143,109.4,142.9,109.5,142.7,109.5z"/>
	<path d="M155.8,108.3c0.1,0.1,0.1,0.1,0.1,0.2c0,0.1,0,0.2-0.1,0.3c-0.7,0.6-1.6,0.9-2.7,0.9c-1.1,0-1.9-0.3-2.6-1
		c-0.7-0.7-1-1.7-1-3v-6.3h-1.3c-0.2,0-0.3-0.1-0.3-0.3v-1c0-0.2,0.1-0.3,0.3-0.3h1.3v-2.4c0-0.2,0.1-0.3,0.3-0.3h1.3
		c0.2,0,0.3,0.1,0.3,0.3v2.4h3c0.2,0,0.3,0.1,0.3,0.3v1c0,0.2-0.1,0.3-0.3,0.3h-3v6.2c0,0.8,0.2,1.4,0.5,1.8
		c0.4,0.4,0.8,0.6,1.4,0.6c0.6,0,1.1-0.2,1.4-0.5c0.2-0.1,0.3-0.1,0.4,0L155.8,108.3z"/>
	<path d="M193.3,109.5H191c-0.4,0-0.6-0.1-0.8-0.2c-0.2-0.2-0.3-0.4-0.3-0.8v-6.3c0-0.9-0.2-1.6-0.7-2.2c-0.4-0.5-1.1-0.8-2-0.8
		c-1.3,0-2.3,0.6-3,1.7c0.1,0.3,0.1,0.6,0.1,1v6h1.3c0.2,0,0.3,0.1,0.3,0.3v1c0,0.2-0.1,0.3-0.3,0.3h-4.6c-0.2,0-0.3-0.1-0.3-0.3v-1
		c0-0.2,0.1-0.3,0.3-0.3h1.3v-5.7c0-0.9-0.2-1.6-0.7-2.2c-0.4-0.5-1.1-0.8-2-0.8c-0.7,0-1.2,0.1-1.5,0.3c-0.3,0.2-0.6,0.4-0.8,0.5
		c-0.2,0.2-0.3,0.3-0.4,0.4c-0.2,0.3-0.4,0.5-0.5,0.8v6.6h1.2c0.2,0,0.3,0.1,0.3,0.3v1c0,0.2-0.1,0.3-0.3,0.3h-4.5
		c-0.2,0-0.3-0.1-0.3-0.3v-1c0-0.2,0.1-0.3,0.3-0.3h1.3v-8.6h-1.3c-0.2,0-0.3-0.1-0.3-0.3v-1c0-0.2,0.1-0.3,0.3-0.3h2.4
		c0.3,0,0.5,0.1,0.6,0.2c0.1,0.1,0.2,0.3,0.2,0.6l0,1.2h0.1c0.8-1.4,2.1-2.1,3.9-2.1s2.9,0.7,3.6,2c0.9-1.3,2.2-2,3.9-2
		c1.3,0,2.3,0.4,3,1.1s1.1,1.8,1.1,3l0,6.2h1.3c0.2,0,0.3,0.1,0.3,0.3v1C193.6,109.4,193.5,109.5,193.3,109.5z"/>
	<path d="M209.5,103.9h-8.6c0.1,1.3,0.5,2.4,1.3,3.1s1.7,1.1,2.6,1.1s1.8-0.2,2.5-0.6c0.7-0.4,1.2-0.8,1.4-1.2
		c0.1-0.2,0.3-0.2,0.4-0.1l0.6,0.6c0.1,0.1,0.1,0.2,0.1,0.3c0,0.1,0,0.2-0.1,0.3s-0.2,0.3-0.4,0.5c-0.2,0.2-0.5,0.5-0.9,0.8
		c-0.4,0.3-0.9,0.6-1.6,0.8c-0.6,0.2-1.3,0.3-2.1,0.3c-1.7,0-3.1-0.6-4.2-1.7c-1.1-1.1-1.7-2.6-1.7-4.5c0-1.9,0.6-3.3,1.7-4.4
		c1.1-1.1,2.5-1.6,4.1-1.6s2.9,0.5,3.8,1.6c0.9,1,1.4,2.5,1.4,4.2c0,0.1,0,0.1,0,0.2C209.9,103.8,209.8,103.9,209.5,103.9z M207,100
		c-0.6-0.6-1.3-0.9-2.3-0.9s-1.8,0.3-2.5,0.8c-0.7,0.5-1.1,1.4-1.2,2.4h6.9C207.8,101.4,207.5,100.6,207,100z"/>
	<path d="M228.4,109.5h-2.1c-0.4,0-0.6-0.1-0.8-0.2c-0.2-0.2-0.3-0.4-0.3-0.8v-1.3h0c-0.3,0.7-0.7,1.3-1.4,1.8s-1.6,0.8-2.6,0.8
		c-1.6,0-2.9-0.6-3.9-1.7s-1.5-2.6-1.5-4.4c0-1.8,0.5-3.3,1.5-4.4s2.3-1.7,3.9-1.7c1,0,1.8,0.2,2.5,0.7s1.1,1,1.4,1.7h0
		c0-0.3,0-0.6,0-0.8v-5.2h-1.3c-0.2,0-0.3-0.1-0.3-0.3v-1c0-0.2,0.1-0.3,0.3-0.3h3c0.2,0,0.3,0.1,0.3,0.3v15.3h1.3
		c0.2,0,0.3,0.1,0.3,0.3v1C228.7,109.4,228.6,109.5,228.4,109.5z M217.8,103.6c0,1.3,0.3,2.4,1,3.2c0.7,0.8,1.6,1.2,2.7,1.2
		c1.1,0,2-0.4,2.6-1.2c0.7-0.8,1-1.9,1-3.2s-0.4-2.4-1.1-3.2c-0.7-0.8-1.6-1.2-2.6-1.2s-1.9,0.4-2.6,1.2
		C218.2,101.2,217.8,102.2,217.8,103.6z"/>
	<path d="M239.5,109.5h-4.6c-0.2,0-0.3-0.1-0.3-0.3v-1c0-0.2,0.1-0.3,0.3-0.3h1.3v-8.6h-1.3c-0.2,0-0.3-0.1-0.3-0.3v-1
		c0-0.2,0.1-0.3,0.3-0.3h3c0.2,0,0.3,0.1,0.3,0.3v9.9h1.3c0.2,0,0.3,0.1,0.3,0.3v1C239.8,109.4,239.7,109.5,239.5,109.5z
		 M238.2,94.2c0.3,0.3,0.4,0.6,0.4,1c0,0.4-0.1,0.7-0.4,0.9s-0.6,0.4-0.9,0.4s-0.7-0.1-0.9-0.4c-0.3-0.3-0.4-0.6-0.4-0.9
		c0-0.4,0.1-0.7,0.4-1c0.3-0.3,0.6-0.4,0.9-0.4S237.9,93.9,238.2,94.2z"/>
	<path d="M253.6,108.3c0.1,0.1,0.1,0.1,0.1,0.2c0,0.1,0,0.2-0.1,0.3c-0.7,0.6-1.6,0.9-2.7,0.9c-1.1,0-1.9-0.3-2.6-1
		c-0.7-0.7-1-1.7-1-3v-6.3h-1.3c-0.2,0-0.3-0.1-0.3-0.3v-1c0-0.2,0.1-0.3,0.3-0.3h1.3v-2.4c0-0.2,0.1-0.3,0.3-0.3h1.3
		c0.2,0,0.3,0.1,0.3,0.3v2.4h3c0.2,0,0.3,0.1,0.3,0.3v1c0,0.2-0.1,0.3-0.3,0.3h-3v6.2c0,0.8,0.2,1.4,0.5,1.8
		c0.4,0.4,0.8,0.6,1.4,0.6c0.6,0,1.1-0.2,1.4-0.5c0.2-0.1,0.3-0.1,0.4,0L253.6,108.3z"/>
	<path d="M269.2,103.9h-8.6c0.1,1.3,0.5,2.4,1.3,3.1s1.7,1.1,2.6,1.1s1.8-0.2,2.5-0.6c0.7-0.4,1.2-0.8,1.4-1.2
		c0.1-0.2,0.3-0.2,0.4-0.1l0.6,0.6c0.1,0.1,0.1,0.2,0.1,0.3c0,0.1,0,0.2-0.1,0.3s-0.2,0.3-0.4,0.5c-0.2,0.2-0.5,0.5-0.9,0.8
		c-0.4,0.3-0.9,0.6-1.6,0.8c-0.6,0.2-1.3,0.3-2.1,0.3c-1.7,0-3.1-0.6-4.2-1.7c-1.1-1.1-1.7-2.6-1.7-4.5c0-1.9,0.6-3.3,1.7-4.4
		c1.1-1.1,2.5-1.6,4.1-1.6s2.9,0.5,3.8,1.6c0.9,1,1.4,2.5,1.4,4.2c0,0.1,0,0.1,0,0.2C269.5,103.8,269.4,103.9,269.2,103.9z
		 M266.6,100c-0.6-0.6-1.3-0.9-2.3-0.9s-1.8,0.3-2.5,0.8c-0.7,0.5-1.1,1.4-1.2,2.4h6.9C267.5,101.4,267.1,100.6,266.6,100z"/>
	<path d="M280.4,109.5h-4.6c-0.2,0-0.3-0.1-0.3-0.3v-1c0-0.2,0.1-0.3,0.3-0.3h1.3v-8.6h-1.3c-0.2,0-0.3-0.1-0.3-0.3v-1
		c0-0.2,0.1-0.3,0.3-0.3h2.8c0.2,0,0.3,0.1,0.3,0.3v3h0.1c0-0.3,0.2-0.6,0.5-1.1c0.3-0.4,0.6-0.8,0.9-1.1c0.3-0.3,0.8-0.6,1.5-0.8
		c0.6-0.2,1.4-0.4,2.2-0.4c0.2,0,0.3,0.1,0.3,0.3v1.3c0,0.2-0.1,0.3-0.3,0.3h-0.5c-1.4,0-2.5,0.4-3.3,1.3c-0.8,0.9-1.2,1.9-1.2,3v4
		h1.3c0.2,0,0.3,0.1,0.3,0.3v1C280.7,109.4,280.6,109.5,280.4,109.5z"/>
	<path d="M294.5,109.5H290c-0.2,0-0.3-0.1-0.3-0.3v-1c0-0.2,0.1-0.3,0.3-0.3h1.3v-8.6H290c-0.2,0-0.3-0.1-0.3-0.3v-1
		c0-0.2,0.1-0.3,0.3-0.3h2.8c0.2,0,0.3,0.1,0.3,0.3v3h0.1c0-0.3,0.2-0.6,0.5-1.1c0.3-0.4,0.6-0.8,0.9-1.1c0.3-0.3,0.8-0.6,1.5-0.8
		c0.6-0.2,1.4-0.4,2.2-0.4c0.2,0,0.3,0.1,0.3,0.3v1.3c0,0.2-0.1,0.3-0.3,0.3h-0.5c-1.4,0-2.5,0.4-3.3,1.3c-0.8,0.9-1.2,1.9-1.2,3v4
		h1.3c0.2,0,0.3,0.1,0.3,0.3v1C294.9,109.4,294.8,109.5,294.5,109.5z"/>
	<path d="M315.5,109.5h-2.1c-0.7,0-1-0.3-1-1v-1.2h0c-1.2,1.6-2.7,2.4-4.7,2.4c-1.2,0-2.1-0.3-2.8-0.9c-0.7-0.6-1.1-1.4-1.1-2.4
		c0-1.3,0.6-2.3,1.7-2.9c1.1-0.6,2.7-0.9,4.7-0.9h2v-0.3c0-2-1-3-3.1-3c-1,0-1.7,0.1-2.1,0.3s-0.7,0.3-0.9,0.4
		c-0.2,0.1-0.3,0.2-0.4,0.3c-0.2,0.2-0.4,0.2-0.5,0l-0.7-0.8c-0.1-0.1-0.1-0.3,0-0.4c0.3-0.4,0.8-0.7,1.7-1c0.8-0.3,1.8-0.5,3-0.5
		c3.4,0,5,1.6,5,4.8v5.6h1.3c0.2,0,0.3,0.1,0.3,0.3v1C315.8,109.4,315.7,109.5,315.5,109.5z M312.2,104h-1.9c-0.9,0-1.7,0-2.3,0.1
		c-0.6,0.1-1.1,0.3-1.5,0.6c-0.4,0.3-0.6,0.8-0.6,1.3c0,0.6,0.2,1,0.7,1.4c0.5,0.4,1.1,0.5,1.8,0.5c1.6,0,2.9-0.7,3.9-2.1V104z"/>
	<path d="M334.5,109.5h-2.3c-0.7,0-1-0.3-1-1v-6.3c0-0.9-0.2-1.6-0.7-2.2c-0.4-0.5-1.1-0.8-2-0.8c-1.2,0-2.2,0.5-2.9,1.5
		c-0.1,0.1-0.2,0.3-0.3,0.5v6.6h1.3c0.2,0,0.3,0.1,0.3,0.3v1c0,0.2-0.1,0.3-0.3,0.3H322c-0.2,0-0.3-0.1-0.3-0.3v-1
		c0-0.2,0.1-0.3,0.3-0.3h1.3v-8.6H322c-0.2,0-0.3-0.1-0.3-0.3v-1c0-0.2,0.1-0.3,0.3-0.3h2.8c0.2,0,0.3,0.1,0.3,0.3l0,1.6h0.1
		c0.8-1.4,2.1-2.1,3.9-2.1c1.3,0,2.3,0.4,3,1.1c0.7,0.8,1.1,1.8,1.1,3v6.2h1.3c0.2,0,0.3,0.1,0.3,0.3v1
		C334.8,109.4,334.7,109.5,334.5,109.5z"/>
	<path d="M350.7,103.9h-8.6c0.1,1.3,0.5,2.4,1.3,3.1s1.7,1.1,2.6,1.1s1.8-0.2,2.5-0.6c0.7-0.4,1.2-0.8,1.4-1.2
		c0.1-0.2,0.3-0.2,0.4-0.1l0.6,0.6c0.1,0.1,0.1,0.2,0.1,0.3c0,0.1,0,0.2-0.1,0.3s-0.2,0.3-0.4,0.5c-0.2,0.2-0.5,0.5-0.9,0.8
		c-0.4,0.3-0.9,0.6-1.6,0.8c-0.6,0.2-1.3,0.3-2.1,0.3c-1.7,0-3.1-0.6-4.2-1.7c-1.1-1.1-1.7-2.6-1.7-4.5c0-1.9,0.6-3.3,1.7-4.4
		c1.1-1.1,2.5-1.6,4.1-1.6s2.9,0.5,3.8,1.6c0.9,1,1.4,2.5,1.4,4.2c0,0.1,0,0.1,0,0.2C351.1,103.8,351,103.9,350.7,103.9z M348.1,100
		c-0.6-0.6-1.3-0.9-2.3-0.9s-1.8,0.3-2.5,0.8c-0.7,0.5-1.1,1.4-1.2,2.4h6.9C349,101.4,348.7,100.6,348.1,100z"/>
	<path d="M367.7,103.9h-8.6c0.1,1.3,0.5,2.4,1.3,3.1s1.7,1.1,2.6,1.1s1.8-0.2,2.5-0.6c0.7-0.4,1.2-0.8,1.4-1.2
		c0.1-0.2,0.3-0.2,0.4-0.1l0.6,0.6c0.1,0.1,0.1,0.2,0.1,0.3c0,0.1,0,0.2-0.1,0.3s-0.2,0.3-0.4,0.5c-0.2,0.2-0.5,0.5-0.9,0.8
		c-0.4,0.3-0.9,0.6-1.6,0.8c-0.6,0.2-1.3,0.3-2.1,0.3c-1.7,0-3.1-0.6-4.2-1.7c-1.1-1.1-1.7-2.6-1.7-4.5c0-1.9,0.6-3.3,1.7-4.4
		c1.1-1.1,2.5-1.6,4.1-1.6s2.9,0.5,3.8,1.6c0.9,1,1.4,2.5,1.4,4.2c0,0.1,0,0.1,0,0.2C368.1,103.8,367.9,103.9,367.7,103.9z
		 M365.1,100c-0.6-0.6-1.3-0.9-2.3-0.9s-1.8,0.3-2.5,0.8c-0.7,0.5-1.1,1.4-1.2,2.4h6.9C366,101.4,365.7,100.6,365.1,100z"/>
	<path d="M386.8,109.5h-2.3c-0.7,0-1-0.3-1-1v-6.3c0-0.9-0.2-1.6-0.7-2.2c-0.4-0.5-1.1-0.8-2-0.8c-1.2,0-2.2,0.5-2.9,1.5
		c-0.1,0.1-0.2,0.3-0.3,0.5v6.6h1.3c0.2,0,0.3,0.1,0.3,0.3v1c0,0.2-0.1,0.3-0.3,0.3h-4.6c-0.2,0-0.3-0.1-0.3-0.3v-1
		c0-0.2,0.1-0.3,0.3-0.3h1.3v-8.6h-1.3c-0.2,0-0.3-0.1-0.3-0.3v-1c0-0.2,0.1-0.3,0.3-0.3h2.8c0.2,0,0.3,0.1,0.3,0.3l0,1.6h0.1
		c0.8-1.4,2.1-2.1,3.9-2.1c1.3,0,2.3,0.4,3,1.1c0.7,0.8,1.1,1.8,1.1,3v6.2h1.3c0.2,0,0.3,0.1,0.3,0.3v1
		C387.1,109.4,387,109.5,386.8,109.5z"/>
</g>
<line fill="none" stroke="#83b427" stroke-miterlimit="10" x1="33.6" y1="41.5" x2="58.9" y2="41.5"/>
</svg>
